<svg width="23" height="23" viewBox="0 0 23 23" fill="none" xmlns="http://www.w3.org/2000/svg">
<path d="M15.7703 15.5374C18.6748 12.6329 18.6748 7.92369 15.7703 5.01917C12.8658 2.11464 8.15662 2.11464 5.2521 5.01917C2.34758 7.92369 2.34758 12.6329 5.2521 15.5374C8.15662 18.4419 12.8658 18.4419 15.7703 15.5374ZM16.6131 17.6417C12.8564 20.7623 7.2712 20.5617 3.7495 17.04C0.0151119 13.3056 0.0151116 7.25095 3.7495 3.51657C7.48388 -0.217823 13.5385 -0.217823 17.2729 3.51657C20.6813 6.92497 20.9788 12.2662 18.1655 16.0121L22.446 20.2926C22.884 20.7306 22.886 21.4388 22.4436 21.8812C22.0043 22.3205 21.2877 22.3163 20.855 21.8836L16.6131 17.6417Z" fill="white"/>
</svg>
